<svg width="350" height="246" viewBox="0 0 350 246" fill="none" xmlns="http://www.w3.org/2000/svg">
<g filter="url(#filter0_d)">
<mask id="path-1-inside-1" fill="white">
<path fill-rule="evenodd" clip-rule="evenodd" d="M138.9 47.4V183.6C138.9 200.2 132.4 212.3 119.4 219.9C106.6 227.3 89.6 231 68.4 231C22.8 231 0 215.2 0 183.6V47.4C0 30.8 6.40002 18.8 19.2 11.4C32.2 3.80002 49.3 0 70.5 0C116.1 0 138.9 15.8 138.9 47.4ZM24 44.4V186.6C24 202.2 39.1 210 69.3 210C99.7 210 114.9 202.2 114.9 186.6V44.4C114.9 28.8 99.7 21 69.3 21C39.1 21 24 28.8 24 44.4ZM323.724 228C330.724 228 334.224 226.2 334.224 222.6C334.224 222 326.324 192.9 310.524 135.3C307.124 122.7 301.724 114.6 294.324 111C299.924 106.8 304.024 99.9 306.624 90.3L328.224 8.40002C328.224 4.80002 324.724 3 317.724 3C310.724 3 306.524 5.30002 305.124 9.90002L283.524 90.3C281.724 97.5 278.924 102 275.124 103.8C271.524 105.6 262.824 106.5 249.024 106.5H241.524C237.524 106.5 235.524 110 235.524 117C235.524 124 237.524 127.5 241.524 127.5H261.324C272.124 127.5 279.124 128.5 282.324 130.5C285.524 132.3 288.024 136.7 289.824 143.7L311.124 221.1C312.524 225.7 316.724 228 323.724 228ZM225.324 221.1V9.90002C225.324 5.30002 221.324 3 213.324 3C205.324 3 201.324 5.30002 201.324 9.90002V221.1C201.324 225.7 205.324 228 213.324 228C221.324 228 225.324 225.7 225.324 221.1ZM189.463 118.5C189.463 129.546 180.509 138.5 169.463 138.5C158.417 138.5 149.463 129.546 149.463 118.5C149.463 107.454 158.417 98.5 169.463 98.5C180.509 98.5 189.463 107.454 189.463 118.5Z"/>
</mask>
<path fill-rule="evenodd" clip-rule="evenodd" d="M138.9 47.4V183.6C138.9 200.2 132.4 212.3 119.4 219.9C106.6 227.3 89.6 231 68.4 231C22.8 231 0 215.2 0 183.6V47.4C0 30.8 6.40002 18.8 19.2 11.4C32.2 3.80002 49.3 0 70.5 0C116.1 0 138.9 15.8 138.9 47.4ZM24 44.4V186.6C24 202.2 39.1 210 69.3 210C99.7 210 114.9 202.2 114.9 186.6V44.4C114.9 28.8 99.7 21 69.3 21C39.1 21 24 28.8 24 44.4ZM323.724 228C330.724 228 334.224 226.2 334.224 222.6C334.224 222 326.324 192.9 310.524 135.3C307.124 122.7 301.724 114.6 294.324 111C299.924 106.8 304.024 99.9 306.624 90.3L328.224 8.40002C328.224 4.80002 324.724 3 317.724 3C310.724 3 306.524 5.30002 305.124 9.90002L283.524 90.3C281.724 97.5 278.924 102 275.124 103.8C271.524 105.6 262.824 106.5 249.024 106.5H241.524C237.524 106.5 235.524 110 235.524 117C235.524 124 237.524 127.5 241.524 127.5H261.324C272.124 127.5 279.124 128.5 282.324 130.5C285.524 132.3 288.024 136.7 289.824 143.7L311.124 221.1C312.524 225.7 316.724 228 323.724 228ZM225.324 221.1V9.90002C225.324 5.30002 221.324 3 213.324 3C205.324 3 201.324 5.30002 201.324 9.90002V221.1C201.324 225.7 205.324 228 213.324 228C221.324 228 225.324 225.7 225.324 221.1ZM189.463 118.5C189.463 129.546 180.509 138.5 169.463 138.5C158.417 138.5 149.463 129.546 149.463 118.5C149.463 107.454 158.417 98.5 169.463 98.5C180.509 98.5 189.463 107.454 189.463 118.5Z" fill="url(#paint0_radial)"/>
<path d="M119.4 219.9L120.902 222.497L120.908 222.494L120.914 222.49L119.4 219.9ZM19.2 11.4L20.7015 13.9972L20.7078 13.9936L20.7141 13.9899L19.2 11.4ZM310.524 135.3L307.628 136.082L307.631 136.094L310.524 135.3ZM294.324 111L292.524 108.6L288.593 111.548L293.012 113.698L294.324 111ZM306.624 90.3L309.52 91.0843L309.523 91.0747L309.525 91.0651L306.624 90.3ZM328.224 8.40002L331.125 9.16507L331.224 8.78898V8.40002H328.224ZM305.124 9.90002L302.254 9.0266L302.24 9.0739L302.227 9.12165L305.124 9.90002ZM283.524 90.3L280.627 89.5216L280.62 89.547L280.614 89.5724L283.524 90.3ZM275.124 103.8L273.84 101.089L273.811 101.102L273.783 101.117L275.124 103.8ZM282.324 130.5L280.734 133.044L280.793 133.081L280.853 133.115L282.324 130.5ZM289.824 143.7L286.919 144.447L286.925 144.472L286.932 144.496L289.824 143.7ZM311.124 221.1L308.232 221.896L308.242 221.935L308.254 221.973L311.124 221.1ZM141.9 183.6V47.4H135.9V183.6H141.9ZM120.914 222.49C134.943 214.289 141.9 201.134 141.9 183.6H135.9C135.9 199.266 129.857 210.312 117.886 217.31L120.914 222.49ZM68.4 234C89.9117 234 107.489 230.251 120.902 222.497L117.899 217.303C105.711 224.349 89.2882 228 68.4 228V234ZM-3 183.6C-3 200.225 3.06025 213.071 15.3912 221.616C27.5229 230.023 45.3462 234 68.4 234V228C45.8538 228 29.4771 224.077 18.8088 216.684C8.33975 209.429 3 198.575 3 183.6H-3ZM-3 47.4V183.6H3V47.4H-3ZM17.6985 8.80282C3.84171 16.8138 -3 29.8873 -3 47.4H3C3 31.7128 8.95834 20.7863 20.7015 13.9972L17.6985 8.80282ZM70.5 -3C48.9739 -3 31.2954 0.85382 17.6859 8.81013L20.7141 13.9899C33.1046 6.74622 49.6261 3 70.5 3V-3ZM141.9 47.4C141.9 30.7748 135.84 17.9294 123.509 9.38421C111.377 0.977192 93.5538 -3 70.5 -3V3C93.0461 3 109.423 6.92282 120.091 14.3158C130.56 21.5707 135.9 32.4252 135.9 47.4H141.9ZM27 186.6V44.4H21V186.6H27ZM69.3 207C54.3608 207 43.6127 205.055 36.7018 201.485C33.2901 199.722 30.899 197.608 29.352 195.211C27.8141 192.828 27 189.995 27 186.6H21C21 191.005 22.0734 194.997 24.3105 198.464C26.5385 201.917 29.8099 204.678 33.9482 206.815C42.1372 211.046 54.0392 213 69.3 213V207ZM111.9 186.6C111.9 189.991 111.082 192.821 109.534 195.203C107.977 197.601 105.569 199.717 102.13 201.481C95.167 205.054 84.3408 207 69.3 207V213C84.6592 213 96.633 211.046 104.87 206.819C109.032 204.683 112.323 201.924 114.566 198.472C116.818 195.004 117.9 191.009 117.9 186.6H111.9ZM111.9 44.4V186.6H117.9V44.4H111.9ZM69.3 24C84.3408 24 95.167 25.9458 102.13 29.5191C105.569 31.2834 107.977 33.3994 109.534 35.7967C111.082 38.1791 111.9 41.0093 111.9 44.4H117.9C117.9 39.9908 116.818 35.996 114.566 32.5283C112.323 29.0757 109.032 26.3166 104.87 24.1809C96.633 19.9542 84.6592 18 69.3 18V24ZM27 44.4C27 41.0053 27.8141 38.1724 29.352 35.7891C30.899 33.3918 33.2901 31.2777 36.7018 29.5154C43.6127 25.9455 54.3608 24 69.3 24V18C54.0392 18 42.1372 19.9545 33.9482 24.1846C29.8099 26.3223 26.5385 29.0832 24.3105 32.5359C22.0734 36.0026 21 39.9947 21 44.4H27ZM331.224 222.6C331.224 222.992 331.136 223.198 331.051 223.331C330.955 223.478 330.74 223.719 330.227 223.982C329.115 224.554 327.064 225 323.724 225V231C327.384 231 330.584 230.546 332.971 229.318C334.209 228.682 335.306 227.797 336.085 226.594C336.874 225.377 337.224 224.008 337.224 222.6H331.224ZM307.631 136.094C315.531 164.893 321.455 186.565 325.404 201.111C327.379 208.385 328.858 213.873 329.844 217.577C330.337 219.431 330.704 220.831 330.947 221.782C331.07 222.26 331.157 222.611 331.213 222.846C331.241 222.966 331.257 223.036 331.264 223.069C331.267 223.088 331.264 223.074 331.259 223.041C331.256 223.025 331.25 222.986 331.243 222.933C331.239 222.897 331.224 222.769 331.224 222.6H337.224C337.224 222.315 337.181 222.075 337.178 222.061C337.165 221.981 337.15 221.907 337.139 221.851C337.115 221.736 337.084 221.601 337.051 221.461C336.983 221.175 336.885 220.784 336.76 220.296C336.51 219.316 336.137 217.894 335.642 216.035C334.653 212.315 333.17 206.815 331.194 199.539C327.243 184.985 321.317 163.307 313.417 134.506L307.631 136.094ZM293.012 113.698C299.272 116.743 304.323 123.835 307.628 136.082L313.421 134.518C309.925 121.565 304.177 112.457 295.637 108.302L293.012 113.698ZM303.729 89.5157C301.232 98.7351 297.405 104.94 292.524 108.6L296.124 113.4C302.444 108.66 306.817 101.065 309.52 91.0843L303.729 89.5157ZM325.323 7.63498L303.723 89.535L309.525 91.0651L331.125 9.16507L325.323 7.63498ZM317.724 6C321.064 6 323.115 6.44569 324.227 7.01787C324.74 7.28153 324.955 7.52186 325.051 7.6692C325.137 7.80184 325.224 8.00795 325.224 8.40002H331.224C331.224 6.99209 330.874 5.6232 330.085 4.40584C329.306 3.20317 328.209 2.31849 326.971 1.68215C324.584 0.454315 321.384 0 317.724 0V6ZM307.994 10.7735C308.467 9.2202 309.356 8.12791 310.765 7.3563C312.266 6.53438 314.511 6 317.724 6V0C313.937 0 310.582 0.615633 307.883 2.09372C305.092 3.62212 303.181 5.97985 302.254 9.0266L307.994 10.7735ZM286.421 91.0784L308.022 10.6784L302.227 9.12165L280.627 89.5216L286.421 91.0784ZM276.408 106.511C281.467 104.115 284.575 98.4653 286.435 91.0276L280.614 89.5724C278.873 96.5348 276.381 99.8852 273.84 101.089L276.408 106.511ZM249.024 109.5C255.976 109.5 261.714 109.274 266.208 108.809C270.595 108.355 274.143 107.645 276.466 106.483L273.783 101.117C272.505 101.755 269.903 102.395 265.591 102.841C261.384 103.276 255.873 103.5 249.024 103.5V109.5ZM241.524 109.5H249.024V103.5H241.524V109.5ZM238.524 117C238.524 113.687 239.015 111.688 239.629 110.613C240.1 109.789 240.611 109.5 241.524 109.5V103.5C238.437 103.5 235.948 104.961 234.42 107.637C233.034 110.062 232.524 113.313 232.524 117H238.524ZM241.524 124.5C240.611 124.5 240.1 124.211 239.629 123.387C239.015 122.312 238.524 120.313 238.524 117H232.524C232.524 120.687 233.034 123.938 234.42 126.363C235.948 129.039 238.437 130.5 241.524 130.5V124.5ZM261.324 124.5H241.524V130.5H261.324V124.5ZM283.914 127.956C281.771 126.616 278.713 125.797 275.098 125.28C271.405 124.753 266.801 124.5 261.324 124.5V130.5C266.648 130.5 270.943 130.747 274.25 131.22C277.635 131.703 279.678 132.384 280.734 133.044L283.914 127.956ZM292.73 142.953C290.9 135.836 288.146 130.333 283.795 127.885L280.853 133.115C282.903 134.267 285.149 137.564 286.919 144.447L292.73 142.953ZM314.017 220.304L292.717 142.904L286.932 144.496L308.232 221.896L314.017 220.304ZM323.724 225C320.511 225 318.266 224.466 316.765 223.644C315.356 222.872 314.467 221.78 313.994 220.227L308.254 221.973C309.181 225.02 311.092 227.378 313.883 228.906C316.582 230.384 319.937 231 323.724 231V225ZM222.324 9.90002V221.1H228.324V9.90002H222.324ZM213.324 6C217.135 6 219.506 6.56508 220.829 7.32573C221.902 7.94257 222.324 8.6778 222.324 9.90002H228.324C228.324 6.52225 226.747 3.80746 223.82 2.12429C221.142 0.584928 217.513 0 213.324 0V6ZM204.324 9.90002C204.324 8.6778 204.747 7.94257 205.82 7.32573C207.142 6.56508 209.513 6 213.324 6V0C209.135 0 205.506 0.584928 202.829 2.12429C199.902 3.80746 198.324 6.52225 198.324 9.90002H204.324ZM204.324 221.1V9.90002H198.324V221.1H204.324ZM213.324 225C209.513 225 207.142 224.435 205.82 223.674C204.747 223.057 204.324 222.322 204.324 221.1H198.324C198.324 224.478 199.902 227.193 202.829 228.876C205.506 230.415 209.135 231 213.324 231V225ZM222.324 221.1C222.324 222.322 221.902 223.057 220.829 223.674C219.506 224.435 217.135 225 213.324 225V231C217.513 231 221.142 230.415 223.82 228.876C226.747 227.193 228.324 224.478 228.324 221.1H222.324ZM169.463 141.5C182.165 141.5 192.463 131.203 192.463 118.5H186.463C186.463 127.889 178.852 135.5 169.463 135.5V141.5ZM146.463 118.5C146.463 131.203 156.76 141.5 169.463 141.5V135.5C160.074 135.5 152.463 127.889 152.463 118.5H146.463ZM169.463 95.5C156.76 95.5 146.463 105.797 146.463 118.5H152.463C152.463 109.111 160.074 101.5 169.463 101.5V95.5ZM192.463 118.5C192.463 105.797 182.165 95.5 169.463 95.5V101.5C178.852 101.5 186.463 109.111 186.463 118.5H192.463Z" fill="white" fill-opacity="0.7" mask="url(#path-1-inside-1)"/>
</g>
<defs>
<filter id="filter0_d" x="0" y="0" width="349.224" height="246" filterUnits="userSpaceOnUse" color-interpolation-filters="sRGB">
<feFlood flood-opacity="0" result="BackgroundImageFix"/>
<feColorMatrix in="SourceAlpha" type="matrix" values="0 0 0 0 0 0 0 0 0 0 0 0 0 0 0 0 0 0 127 0"/>
<feOffset dx="10" dy="10"/>
<feGaussianBlur stdDeviation="2.5"/>
<feColorMatrix type="matrix" values="0 0 0 0 0 0 0 0 0 0 0 0 0 0 0 0 0 0 0.25 0"/>
<feBlend mode="normal" in2="BackgroundImageFix" result="effect1_dropShadow"/>
<feBlend mode="normal" in="SourceGraphic" in2="effect1_dropShadow" result="shape"/>
</filter>
<radialGradient id="paint0_radial" cx="0" cy="0" r="1" gradientUnits="userSpaceOnUse" gradientTransform="translate(169.463 122.5) rotate(89.4175) scale(102.005 143.056)">
<stop stop-color="#1C3059" stop-opacity="0.9"/>
<stop offset="1" stop-color="#030F26" stop-opacity="0.93"/>
</radialGradient>
</defs>
</svg>
