<svg width="416" height="340" viewBox="0 0 416 340" fill="none" xmlns="http://www.w3.org/2000/svg">
<g filter="url(#filter0_d)">
<mask id="path-1-inside-1" fill="white">
<path fill-rule="evenodd" clip-rule="evenodd" d="M179.9 63.4V199.6C179.9 216.2 173.4 228.3 160.4 235.9C147.6 243.3 130.6 247 109.4 247C63.8 247 41 231.2 41 199.6V63.4C41 46.8 47.4 34.8 60.2 27.4C73.2 19.8 90.3 16 111.5 16C157.1 16 179.9 31.8 179.9 63.4ZM65 60.4V202.6C65 218.2 80.1 226 110.3 226C140.7 226 155.9 218.2 155.9 202.6V60.4C155.9 44.8 140.7 37 110.3 37C80.1 37 65 44.8 65 60.4ZM364.724 244C371.724 244 375.224 242.2 375.224 238.6C375.224 238 367.324 208.9 351.524 151.3C348.124 138.7 342.724 130.6 335.324 127C340.924 122.8 345.024 115.9 347.624 106.3L369.224 24.4C369.224 20.8 365.724 19 358.724 19C351.724 19 347.524 21.3 346.124 25.9L324.524 106.3C322.724 113.5 319.924 118 316.124 119.8C312.524 121.6 303.824 122.5 290.024 122.5H282.524C278.524 122.5 276.524 126 276.524 133C276.524 140 278.524 143.5 282.524 143.5H302.324C313.124 143.5 320.124 144.5 323.324 146.5C326.524 148.3 329.024 152.7 330.824 159.7L352.124 237.1C353.524 241.7 357.724 244 364.724 244ZM266.324 237.1V25.9C266.324 21.3 262.324 19 254.324 19C246.324 19 242.324 21.3 242.324 25.9V237.1C242.324 241.7 246.324 244 254.324 244C262.324 244 266.324 241.7 266.324 237.1ZM230.463 134.5C230.463 145.546 221.509 154.5 210.463 154.5C199.417 154.5 190.463 145.546 190.463 134.5C190.463 123.454 199.417 114.5 210.463 114.5C221.509 114.5 230.463 123.454 230.463 134.5Z"/>
</mask>
<path fill-rule="evenodd" clip-rule="evenodd" d="M179.9 63.4V199.6C179.9 216.2 173.4 228.3 160.4 235.9C147.6 243.3 130.6 247 109.4 247C63.8 247 41 231.2 41 199.6V63.4C41 46.8 47.4 34.8 60.2 27.4C73.2 19.8 90.3 16 111.5 16C157.1 16 179.9 31.8 179.9 63.4ZM65 60.4V202.6C65 218.2 80.1 226 110.3 226C140.7 226 155.9 218.2 155.9 202.6V60.4C155.9 44.8 140.7 37 110.3 37C80.1 37 65 44.8 65 60.4ZM364.724 244C371.724 244 375.224 242.2 375.224 238.6C375.224 238 367.324 208.9 351.524 151.3C348.124 138.7 342.724 130.6 335.324 127C340.924 122.8 345.024 115.9 347.624 106.3L369.224 24.4C369.224 20.8 365.724 19 358.724 19C351.724 19 347.524 21.3 346.124 25.9L324.524 106.3C322.724 113.5 319.924 118 316.124 119.8C312.524 121.6 303.824 122.5 290.024 122.5H282.524C278.524 122.5 276.524 126 276.524 133C276.524 140 278.524 143.5 282.524 143.5H302.324C313.124 143.5 320.124 144.5 323.324 146.5C326.524 148.3 329.024 152.7 330.824 159.7L352.124 237.1C353.524 241.7 357.724 244 364.724 244ZM266.324 237.1V25.9C266.324 21.3 262.324 19 254.324 19C246.324 19 242.324 21.3 242.324 25.9V237.1C242.324 241.7 246.324 244 254.324 244C262.324 244 266.324 241.7 266.324 237.1ZM230.463 134.5C230.463 145.546 221.509 154.5 210.463 154.5C199.417 154.5 190.463 145.546 190.463 134.5C190.463 123.454 199.417 114.5 210.463 114.5C221.509 114.5 230.463 123.454 230.463 134.5Z" fill="url(#paint0_linear)"/>
<path d="M160.4 235.9L161.902 238.497L161.908 238.494L161.914 238.49L160.4 235.9ZM60.2 27.4L61.7015 29.9972L61.7078 29.9936L61.7141 29.9899L60.2 27.4ZM351.524 151.3L348.628 152.082L348.631 152.094L351.524 151.3ZM335.324 127L333.524 124.6L329.593 127.548L334.012 129.698L335.324 127ZM347.624 106.3L350.52 107.084L350.523 107.075L350.525 107.065L347.624 106.3ZM369.224 24.4L372.125 25.165L372.224 24.789V24.4H369.224ZM346.124 25.9L343.254 25.0265L343.24 25.0738L343.227 25.1216L346.124 25.9ZM324.524 106.3L321.627 105.522L321.62 105.547L321.614 105.572L324.524 106.3ZM316.124 119.8L314.84 117.089L314.811 117.102L314.783 117.117L316.124 119.8ZM323.324 146.5L321.734 149.044L321.793 149.081L321.853 149.115L323.324 146.5ZM330.824 159.7L327.919 160.447L327.925 160.472L327.932 160.496L330.824 159.7ZM352.124 237.1L349.232 237.896L349.242 237.935L349.254 237.974L352.124 237.1ZM182.9 199.6V63.4H176.9V199.6H182.9ZM161.914 238.49C175.943 230.289 182.9 217.134 182.9 199.6H176.9C176.9 215.266 170.857 226.312 158.886 233.31L161.914 238.49ZM109.4 250C130.912 250 148.489 246.251 161.902 238.497L158.899 233.303C146.711 240.349 130.288 244 109.4 244V250ZM38 199.6C38 216.225 44.0603 229.071 56.3912 237.616C68.5229 246.023 86.3462 250 109.4 250V244C86.8538 244 70.4771 240.077 59.8088 232.684C49.3398 225.429 44 214.575 44 199.6H38ZM38 63.4V199.6H44V63.4H38ZM58.6985 24.8028C44.8417 32.8138 38 45.8873 38 63.4H44C44 47.7127 49.9583 36.7862 61.7015 29.9972L58.6985 24.8028ZM111.5 13C89.9739 13 72.2954 16.8538 58.6859 24.8101L61.7141 29.9899C74.1046 22.7462 90.6261 19 111.5 19V13ZM182.9 63.4C182.9 46.7748 176.84 33.9294 164.509 25.3842C152.377 16.9772 134.554 13 111.5 13V19C134.046 19 150.423 22.9228 161.091 30.3158C171.56 37.5706 176.9 48.4252 176.9 63.4H182.9ZM68 202.6V60.4H62V202.6H68ZM110.3 223C95.3608 223 84.6128 221.054 77.7018 217.485C74.2901 215.722 71.899 213.608 70.352 211.211C68.8141 208.828 68 205.995 68 202.6H62C62 207.005 63.0734 210.997 65.3105 214.464C67.5385 217.917 70.8099 220.678 74.9482 222.815C83.1373 227.046 95.0392 229 110.3 229V223ZM152.9 202.6C152.9 205.991 152.082 208.821 150.534 211.203C148.977 213.601 146.569 215.717 143.13 217.481C136.167 221.054 125.341 223 110.3 223V229C125.659 229 137.633 227.046 145.87 222.819C150.032 220.683 153.323 217.924 155.566 214.472C157.818 211.004 158.9 207.009 158.9 202.6H152.9ZM152.9 60.4V202.6H158.9V60.4H152.9ZM110.3 40C125.341 40 136.167 41.9458 143.13 45.5191C146.569 47.2834 148.977 49.3994 150.534 51.7967C152.082 54.179 152.9 57.0092 152.9 60.4H158.9C158.9 55.9908 157.818 51.996 155.566 48.5283C153.323 45.0756 150.032 42.3166 145.87 40.1809C137.633 35.9542 125.659 34 110.3 34V40ZM68 60.4C68 57.0053 68.8141 54.1724 70.352 51.7891C71.899 49.3918 74.2901 47.2777 77.7018 45.5154C84.6128 41.9455 95.3608 40 110.3 40V34C95.0392 34 83.1373 35.9545 74.9482 40.1846C70.8099 42.3223 67.5385 45.0832 65.3105 48.5359C63.0734 52.0026 62 55.9947 62 60.4H68ZM372.224 238.6C372.224 238.992 372.137 239.198 372.051 239.331C371.955 239.478 371.74 239.718 371.227 239.982C370.115 240.554 368.064 241 364.724 241V247C368.384 247 371.584 246.546 373.971 245.318C375.209 244.682 376.306 243.797 377.085 242.594C377.874 241.377 378.224 240.008 378.224 238.6H372.224ZM348.631 152.094C356.531 180.893 362.455 202.565 366.404 217.111C368.379 224.385 369.858 229.873 370.844 233.577C371.337 235.431 371.704 236.831 371.947 237.782C372.07 238.26 372.157 238.611 372.213 238.846C372.241 238.966 372.257 239.036 372.264 239.069C372.267 239.088 372.264 239.074 372.259 239.041C372.256 239.025 372.25 238.986 372.243 238.933C372.239 238.897 372.224 238.769 372.224 238.6H378.224C378.224 238.315 378.181 238.075 378.178 238.061C378.165 237.981 378.15 237.907 378.139 237.851C378.115 237.736 378.084 237.601 378.051 237.461C377.983 237.175 377.885 236.784 377.76 236.296C377.51 235.316 377.137 233.894 376.642 232.035C375.653 228.315 374.17 222.815 372.194 215.539C368.243 200.985 362.318 179.307 354.417 150.506L348.631 152.094ZM334.012 129.698C340.272 132.743 345.323 139.835 348.628 152.082L354.421 150.518C350.925 137.565 345.177 128.457 336.637 124.302L334.012 129.698ZM344.729 105.516C342.232 114.735 338.405 120.94 333.524 124.6L337.124 129.4C343.444 124.66 347.817 117.065 350.52 107.084L344.729 105.516ZM366.323 23.6349L344.723 105.535L350.525 107.065L372.125 25.165L366.323 23.6349ZM358.724 22C362.064 22 364.115 22.4457 365.227 23.0179C365.74 23.2815 365.955 23.5218 366.051 23.6692C366.137 23.8018 366.224 24.0079 366.224 24.4H372.224C372.224 22.9921 371.874 21.6232 371.085 20.4058C370.306 19.2031 369.209 18.3185 367.971 17.6821C365.584 16.4543 362.384 16 358.724 16V22ZM348.994 26.7735C349.467 25.2202 350.356 24.1279 351.765 23.3563C353.266 22.5344 355.511 22 358.724 22V16C354.937 16 351.582 16.6156 348.883 18.0937C346.092 19.6221 344.181 21.9798 343.254 25.0265L348.994 26.7735ZM327.421 107.078L349.022 26.6784L343.227 25.1216L321.627 105.522L327.421 107.078ZM317.408 122.511C322.467 120.115 325.575 114.465 327.435 107.028L321.614 105.572C319.873 112.535 317.381 115.885 314.84 117.089L317.408 122.511ZM290.024 125.5C296.976 125.5 302.714 125.274 307.208 124.809C311.595 124.355 315.143 123.645 317.466 122.483L314.783 117.117C313.505 117.755 310.903 118.395 306.591 118.841C302.384 119.276 296.873 119.5 290.024 119.5V125.5ZM282.524 125.5H290.024V119.5H282.524V125.5ZM279.524 133C279.524 129.687 280.015 127.688 280.629 126.613C281.1 125.789 281.611 125.5 282.524 125.5V119.5C279.437 119.5 276.948 120.961 275.42 123.637C274.034 126.062 273.524 129.313 273.524 133H279.524ZM282.524 140.5C281.611 140.5 281.1 140.211 280.629 139.387C280.015 138.312 279.524 136.313 279.524 133H273.524C273.524 136.687 274.034 139.938 275.42 142.363C276.948 145.039 279.437 146.5 282.524 146.5V140.5ZM302.324 140.5H282.524V146.5H302.324V140.5ZM324.914 143.956C322.771 142.616 319.713 141.797 316.098 141.28C312.405 140.753 307.801 140.5 302.324 140.5V146.5C307.648 146.5 311.943 146.747 315.25 147.22C318.635 147.703 320.678 148.384 321.734 149.044L324.914 143.956ZM333.73 158.953C331.9 151.836 329.146 146.333 324.795 143.885L321.853 149.115C323.903 150.267 326.149 153.564 327.919 160.447L333.73 158.953ZM355.017 236.304L333.717 158.904L327.932 160.496L349.232 237.896L355.017 236.304ZM364.724 241C361.511 241 359.266 240.466 357.765 239.644C356.356 238.872 355.467 237.78 354.994 236.227L349.254 237.974C350.181 241.02 352.092 243.378 354.883 244.906C357.582 246.384 360.937 247 364.724 247V241ZM263.324 25.9V237.1H269.324V25.9H263.324ZM254.324 22C258.135 22 260.506 22.5651 261.829 23.3257C262.902 23.9426 263.324 24.6778 263.324 25.9H269.324C269.324 22.5222 267.747 19.8074 264.82 18.1243C262.142 16.5849 258.513 16 254.324 16V22ZM245.324 25.9C245.324 24.6778 245.747 23.9426 246.82 23.3257C248.142 22.5651 250.513 22 254.324 22V16C250.135 16 246.506 16.5849 243.829 18.1243C240.902 19.8074 239.324 22.5222 239.324 25.9H245.324ZM245.324 237.1V25.9H239.324V237.1H245.324ZM254.324 241C250.513 241 248.142 240.435 246.82 239.674C245.747 239.057 245.324 238.322 245.324 237.1H239.324C239.324 240.478 240.902 243.193 243.829 244.876C246.506 246.415 250.135 247 254.324 247V241ZM263.324 237.1C263.324 238.322 262.902 239.057 261.829 239.674C260.506 240.435 258.135 241 254.324 241V247C258.513 247 262.142 246.415 264.82 244.876C267.747 243.193 269.324 240.478 269.324 237.1H263.324ZM210.463 157.5C223.165 157.5 233.463 147.203 233.463 134.5H227.463C227.463 143.889 219.852 151.5 210.463 151.5V157.5ZM187.463 134.5C187.463 147.203 197.76 157.5 210.463 157.5V151.5C201.074 151.5 193.463 143.889 193.463 134.5H187.463ZM210.463 111.5C197.76 111.5 187.463 121.797 187.463 134.5H193.463C193.463 125.111 201.074 117.5 210.463 117.5V111.5ZM233.463 134.5C233.463 121.797 223.165 111.5 210.463 111.5V117.5C219.852 117.5 227.463 125.111 227.463 134.5H233.463Z" fill="white" fill-opacity="0.7" mask="url(#path-1-inside-1)"/>
</g>
<g opacity="0.5" filter="url(#filter1_b)">
<circle cx="208" cy="132" r="208" fill="url(#paint1_linear)"/>
<circle cx="208" cy="132" r="206.5" stroke="url(#paint2_linear)" stroke-width="3"/>
</g>
<defs>
<filter id="filter0_d" x="41" y="16" width="349.224" height="246" filterUnits="userSpaceOnUse" color-interpolation-filters="sRGB">
<feFlood flood-opacity="0" result="BackgroundImageFix"/>
<feColorMatrix in="SourceAlpha" type="matrix" values="0 0 0 0 0 0 0 0 0 0 0 0 0 0 0 0 0 0 127 0"/>
<feOffset dx="10" dy="10"/>
<feGaussianBlur stdDeviation="2.5"/>
<feColorMatrix type="matrix" values="0 0 0 0 0 0 0 0 0 0 0 0 0 0 0 0 0 0 0.25 0"/>
<feBlend mode="normal" in2="BackgroundImageFix" result="effect1_dropShadow"/>
<feBlend mode="normal" in="SourceGraphic" in2="effect1_dropShadow" result="shape"/>
</filter>
<filter id="filter1_b" x="-10" y="-86" width="436" height="436" filterUnits="userSpaceOnUse" color-interpolation-filters="sRGB">
<feFlood flood-opacity="0" result="BackgroundImageFix"/>
<feGaussianBlur in="BackgroundImage" stdDeviation="5"/>
<feComposite in2="SourceAlpha" operator="in" result="effect1_backgroundBlur"/>
<feBlend mode="normal" in="SourceGraphic" in2="effect1_backgroundBlur" result="shape"/>
</filter>
<linearGradient id="paint0_linear" x1="105" y1="16" x2="353" y2="230" gradientUnits="userSpaceOnUse">
<stop stop-color="#1C3059" stop-opacity="0.9"/>
<stop offset="1" stop-color="#030F26" stop-opacity="0.93"/>
</linearGradient>
<linearGradient id="paint1_linear" x1="107" y1="-47" x2="327" y2="305" gradientUnits="userSpaceOnUse">
<stop stop-color="white" stop-opacity="0.3"/>
<stop offset="0.0677083" stop-color="#FAFAFA" stop-opacity="0.2"/>
<stop offset="1" stop-color="#B1B1B1" stop-opacity="0.4"/>
<stop offset="1" stop-color="white" stop-opacity="0.5"/>
</linearGradient>
<linearGradient id="paint2_linear" x1="68" y1="-22" x2="364" y2="266" gradientUnits="userSpaceOnUse">
<stop stop-color="white" stop-opacity="0.3"/>
<stop offset="0.34375" stop-color="white" stop-opacity="0.4"/>
<stop offset="0.666667" stop-color="white" stop-opacity="0.6"/>
<stop offset="1" stop-color="white" stop-opacity="0.9"/>
</linearGradient>
</defs>
</svg>
