<svg width="470" height="470" viewBox="0 0 470 470" fill="none" xmlns="http://www.w3.org/2000/svg">
<g filter="url(#filter0_d)">
<mask id="path-1-inside-1" fill="white">
<path fill-rule="evenodd" clip-rule="evenodd" d="M198.9 156.4V292.6C198.9 309.2 192.4 321.3 179.4 328.9C166.6 336.3 149.6 340 128.4 340C82.8 340 60 324.2 60 292.6V156.4C60 139.8 66.4 127.8 79.2 120.4C92.2 112.8 109.3 109 130.5 109C176.1 109 198.9 124.8 198.9 156.4ZM84 153.4V295.6C84 311.2 99.1 319 129.3 319C159.7 319 174.9 311.2 174.9 295.6V153.4C174.9 137.8 159.7 130 129.3 130C99.1 130 84 137.8 84 153.4ZM383.724 337C390.724 337 394.224 335.2 394.224 331.6C394.224 331 386.324 301.9 370.524 244.3C367.124 231.7 361.724 223.6 354.324 220C359.924 215.8 364.024 208.9 366.624 199.3L388.224 117.4C388.224 113.8 384.724 112 377.724 112C370.724 112 366.524 114.3 365.124 118.9L343.524 199.3C341.724 206.5 338.924 211 335.124 212.8C331.524 214.6 322.824 215.5 309.024 215.5H301.524C297.524 215.5 295.524 219 295.524 226C295.524 233 297.524 236.5 301.524 236.5H321.324C332.124 236.5 339.124 237.5 342.324 239.5C345.524 241.3 348.024 245.7 349.824 252.7L371.124 330.1C372.524 334.7 376.724 337 383.724 337ZM285.324 330.1V118.9C285.324 114.3 281.324 112 273.324 112C265.324 112 261.324 114.3 261.324 118.9V330.1C261.324 334.7 265.324 337 273.324 337C281.324 337 285.324 334.7 285.324 330.1ZM249.463 227.5C249.463 238.546 240.509 247.5 229.463 247.5C218.417 247.5 209.463 238.546 209.463 227.5C209.463 216.454 218.417 207.5 229.463 207.5C240.509 207.5 249.463 216.454 249.463 227.5Z"/>
</mask>
<path fill-rule="evenodd" clip-rule="evenodd" d="M198.9 156.4V292.6C198.9 309.2 192.4 321.3 179.4 328.9C166.6 336.3 149.6 340 128.4 340C82.8 340 60 324.2 60 292.6V156.4C60 139.8 66.4 127.8 79.2 120.4C92.2 112.8 109.3 109 130.5 109C176.1 109 198.9 124.8 198.9 156.4ZM84 153.4V295.6C84 311.2 99.1 319 129.3 319C159.7 319 174.9 311.2 174.9 295.6V153.4C174.9 137.8 159.7 130 129.3 130C99.1 130 84 137.8 84 153.4ZM383.724 337C390.724 337 394.224 335.2 394.224 331.6C394.224 331 386.324 301.9 370.524 244.3C367.124 231.7 361.724 223.6 354.324 220C359.924 215.8 364.024 208.9 366.624 199.3L388.224 117.4C388.224 113.8 384.724 112 377.724 112C370.724 112 366.524 114.3 365.124 118.9L343.524 199.3C341.724 206.5 338.924 211 335.124 212.8C331.524 214.6 322.824 215.5 309.024 215.5H301.524C297.524 215.5 295.524 219 295.524 226C295.524 233 297.524 236.5 301.524 236.5H321.324C332.124 236.5 339.124 237.5 342.324 239.5C345.524 241.3 348.024 245.7 349.824 252.7L371.124 330.1C372.524 334.7 376.724 337 383.724 337ZM285.324 330.1V118.9C285.324 114.3 281.324 112 273.324 112C265.324 112 261.324 114.3 261.324 118.9V330.1C261.324 334.7 265.324 337 273.324 337C281.324 337 285.324 334.7 285.324 330.1ZM249.463 227.5C249.463 238.546 240.509 247.5 229.463 247.5C218.417 247.5 209.463 238.546 209.463 227.5C209.463 216.454 218.417 207.5 229.463 207.5C240.509 207.5 249.463 216.454 249.463 227.5Z" fill="url(#paint0_linear)"/>
<path d="M179.4 328.9L180.902 331.497L180.908 331.494L180.914 331.49L179.4 328.9ZM79.2 120.4L80.7015 122.997L80.7078 122.994L80.7141 122.99L79.2 120.4ZM370.524 244.3L367.628 245.082L367.631 245.094L370.524 244.3ZM354.324 220L352.524 217.6L348.593 220.548L353.012 222.698L354.324 220ZM366.624 199.3L369.52 200.084L369.523 200.075L369.525 200.065L366.624 199.3ZM388.224 117.4L391.125 118.165L391.224 117.789V117.4H388.224ZM365.124 118.9L362.254 118.027L362.24 118.074L362.227 118.122L365.124 118.9ZM343.524 199.3L340.627 198.522L340.62 198.547L340.614 198.572L343.524 199.3ZM335.124 212.8L333.84 210.089L333.811 210.102L333.783 210.117L335.124 212.8ZM342.324 239.5L340.734 242.044L340.793 242.081L340.853 242.115L342.324 239.5ZM349.824 252.7L346.919 253.447L346.925 253.472L346.932 253.496L349.824 252.7ZM371.124 330.1L368.232 330.896L368.242 330.935L368.254 330.974L371.124 330.1ZM201.9 292.6V156.4H195.9V292.6H201.9ZM180.914 331.49C194.943 323.289 201.9 310.134 201.9 292.6H195.9C195.9 308.266 189.857 319.312 177.886 326.31L180.914 331.49ZM128.4 343C149.912 343 167.489 339.251 180.902 331.497L177.899 326.303C165.711 333.349 149.288 337 128.4 337V343ZM57 292.6C57 309.225 63.0603 322.071 75.3912 330.616C87.5229 339.023 105.346 343 128.4 343V337C105.854 337 89.4771 333.077 78.8088 325.684C68.3398 318.429 63 307.575 63 292.6H57ZM57 156.4V292.6H63V156.4H57ZM77.6985 117.803C63.8417 125.814 57 138.887 57 156.4H63C63 140.713 68.9583 129.786 80.7015 122.997L77.6985 117.803ZM130.5 106C108.974 106 91.2954 109.854 77.6859 117.81L80.7141 122.99C93.1046 115.746 109.626 112 130.5 112V106ZM201.9 156.4C201.9 139.775 195.84 126.929 183.509 118.384C171.377 109.977 153.554 106 130.5 106V112C153.046 112 169.423 115.923 180.091 123.316C190.56 130.571 195.9 141.425 195.9 156.4H201.9ZM87 295.6V153.4H81V295.6H87ZM129.3 316C114.361 316 103.613 314.054 96.7018 310.485C93.2901 308.722 90.899 306.608 89.352 304.211C87.8141 301.828 87 298.995 87 295.6H81C81 300.005 82.0734 303.997 84.3105 307.464C86.5385 310.917 89.8099 313.678 93.9482 315.815C102.137 320.046 114.039 322 129.3 322V316ZM171.9 295.6C171.9 298.991 171.082 301.821 169.534 304.203C167.977 306.601 165.569 308.717 162.13 310.481C155.167 314.054 144.341 316 129.3 316V322C144.659 322 156.633 320.046 164.87 315.819C169.032 313.683 172.323 310.924 174.566 307.472C176.818 304.004 177.9 300.009 177.9 295.6H171.9ZM171.9 153.4V295.6H177.9V153.4H171.9ZM129.3 133C144.341 133 155.167 134.946 162.13 138.519C165.569 140.283 167.977 142.399 169.534 144.797C171.082 147.179 171.9 150.009 171.9 153.4H177.9C177.9 148.991 176.818 144.996 174.566 141.528C172.323 138.076 169.032 135.317 164.87 133.181C156.633 128.954 144.659 127 129.3 127V133ZM87 153.4C87 150.005 87.8141 147.172 89.352 144.789C90.899 142.392 93.2901 140.278 96.7018 138.515C103.613 134.946 114.361 133 129.3 133V127C114.039 127 102.137 128.954 93.9482 133.185C89.8099 135.322 86.5385 138.083 84.3105 141.536C82.0734 145.003 81 148.995 81 153.4H87ZM391.224 331.6C391.224 331.992 391.137 332.198 391.051 332.331C390.955 332.478 390.74 332.718 390.227 332.982C389.115 333.554 387.064 334 383.724 334V340C387.384 340 390.584 339.546 392.971 338.318C394.209 337.682 395.306 336.797 396.085 335.594C396.874 334.377 397.224 333.008 397.224 331.6H391.224ZM367.631 245.094C375.531 273.893 381.455 295.565 385.404 310.111C387.379 317.385 388.858 322.873 389.844 326.577C390.337 328.431 390.704 329.831 390.947 330.782C391.07 331.26 391.157 331.611 391.213 331.846C391.241 331.966 391.257 332.036 391.264 332.069C391.267 332.088 391.264 332.074 391.259 332.041C391.256 332.025 391.25 331.986 391.243 331.933C391.239 331.897 391.224 331.769 391.224 331.6H397.224C397.224 331.315 397.181 331.075 397.178 331.061C397.165 330.981 397.15 330.907 397.139 330.851C397.115 330.736 397.084 330.601 397.051 330.461C396.983 330.175 396.885 329.784 396.76 329.296C396.51 328.316 396.137 326.894 395.642 325.035C394.653 321.315 393.17 315.815 391.194 308.539C387.243 293.985 381.318 272.307 373.417 243.506L367.631 245.094ZM353.012 222.698C359.272 225.743 364.323 232.835 367.628 245.082L373.421 243.518C369.925 230.565 364.177 221.457 355.637 217.302L353.012 222.698ZM363.729 198.516C361.232 207.735 357.405 213.94 352.524 217.6L356.124 222.4C362.444 217.66 366.817 210.065 369.52 200.084L363.729 198.516ZM385.323 116.635L363.723 198.535L369.525 200.065L391.125 118.165L385.323 116.635ZM377.724 115C381.064 115 383.115 115.446 384.227 116.018C384.74 116.282 384.955 116.522 385.051 116.669C385.137 116.802 385.224 117.008 385.224 117.4H391.224C391.224 115.992 390.874 114.623 390.085 113.406C389.306 112.203 388.209 111.318 386.971 110.682C384.584 109.454 381.384 109 377.724 109V115ZM367.994 119.773C368.467 118.22 369.356 117.128 370.765 116.356C372.266 115.534 374.511 115 377.724 115V109C373.937 109 370.582 109.616 367.883 111.094C365.092 112.622 363.181 114.98 362.254 118.027L367.994 119.773ZM346.421 200.078L368.022 119.678L362.227 118.122L340.627 198.522L346.421 200.078ZM336.408 215.511C341.467 213.115 344.575 207.465 346.435 200.028L340.614 198.572C338.873 205.535 336.381 208.885 333.84 210.089L336.408 215.511ZM309.024 218.5C315.976 218.5 321.714 218.274 326.208 217.809C330.595 217.355 334.143 216.645 336.466 215.483L333.783 210.117C332.505 210.755 329.903 211.395 325.591 211.841C321.384 212.276 315.873 212.5 309.024 212.5V218.5ZM301.524 218.5H309.024V212.5H301.524V218.5ZM298.524 226C298.524 222.687 299.015 220.688 299.629 219.613C300.1 218.789 300.611 218.5 301.524 218.5V212.5C298.437 212.5 295.948 213.961 294.42 216.637C293.034 219.062 292.524 222.313 292.524 226H298.524ZM301.524 233.5C300.611 233.5 300.1 233.211 299.629 232.387C299.015 231.312 298.524 229.313 298.524 226H292.524C292.524 229.687 293.034 232.938 294.42 235.363C295.948 238.039 298.437 239.5 301.524 239.5V233.5ZM321.324 233.5H301.524V239.5H321.324V233.5ZM343.914 236.956C341.771 235.616 338.713 234.797 335.098 234.28C331.405 233.753 326.801 233.5 321.324 233.5V239.5C326.648 239.5 330.943 239.747 334.25 240.22C337.635 240.703 339.678 241.384 340.734 242.044L343.914 236.956ZM352.73 251.953C350.9 244.836 348.146 239.333 343.795 236.885L340.853 242.115C342.903 243.267 345.149 246.564 346.919 253.447L352.73 251.953ZM374.017 329.304L352.717 251.904L346.932 253.496L368.232 330.896L374.017 329.304ZM383.724 334C380.511 334 378.266 333.466 376.765 332.644C375.356 331.872 374.467 330.78 373.994 329.227L368.254 330.974C369.181 334.02 371.092 336.378 373.883 337.906C376.582 339.384 379.937 340 383.724 340V334ZM282.324 118.9V330.1H288.324V118.9H282.324ZM273.324 115C277.135 115 279.506 115.565 280.829 116.326C281.902 116.943 282.324 117.678 282.324 118.9H288.324C288.324 115.522 286.747 112.807 283.82 111.124C281.142 109.585 277.513 109 273.324 109V115ZM264.324 118.9C264.324 117.678 264.747 116.943 265.82 116.326C267.142 115.565 269.513 115 273.324 115V109C269.135 109 265.506 109.585 262.829 111.124C259.902 112.807 258.324 115.522 258.324 118.9H264.324ZM264.324 330.1V118.9H258.324V330.1H264.324ZM273.324 334C269.513 334 267.142 333.435 265.82 332.674C264.747 332.057 264.324 331.322 264.324 330.1H258.324C258.324 333.478 259.902 336.193 262.829 337.876C265.506 339.415 269.135 340 273.324 340V334ZM282.324 330.1C282.324 331.322 281.902 332.057 280.829 332.674C279.506 333.435 277.135 334 273.324 334V340C277.513 340 281.142 339.415 283.82 337.876C286.747 336.193 288.324 333.478 288.324 330.1H282.324ZM229.463 250.5C242.165 250.5 252.463 240.203 252.463 227.5H246.463C246.463 236.889 238.852 244.5 229.463 244.5V250.5ZM206.463 227.5C206.463 240.203 216.76 250.5 229.463 250.5V244.5C220.074 244.5 212.463 236.889 212.463 227.5H206.463ZM229.463 204.5C216.76 204.5 206.463 214.797 206.463 227.5H212.463C212.463 218.111 220.074 210.5 229.463 210.5V204.5ZM252.463 227.5C252.463 214.797 242.165 204.5 229.463 204.5V210.5C238.852 210.5 246.463 218.111 246.463 227.5H252.463Z" fill="white" fill-opacity="0.7" mask="url(#path-1-inside-1)"/>
</g>
<g filter="url(#filter1_d)">
<circle cx="230.5" cy="230.5" r="220.5" stroke="url(#paint1_linear)" stroke-width="20"/>
</g>
<defs>
<filter id="filter0_d" x="60" y="109" width="349.224" height="246" filterUnits="userSpaceOnUse" color-interpolation-filters="sRGB">
<feFlood flood-opacity="0" result="BackgroundImageFix"/>
<feColorMatrix in="SourceAlpha" type="matrix" values="0 0 0 0 0 0 0 0 0 0 0 0 0 0 0 0 0 0 127 0"/>
<feOffset dx="10" dy="10"/>
<feGaussianBlur stdDeviation="2.5"/>
<feColorMatrix type="matrix" values="0 0 0 0 0 0 0 0 0 0 0 0 0 0 0 0 0 0 0.25 0"/>
<feBlend mode="normal" in2="BackgroundImageFix" result="effect1_dropShadow"/>
<feBlend mode="normal" in="SourceGraphic" in2="effect1_dropShadow" result="shape"/>
</filter>
<filter id="filter1_d" x="0" y="0" width="470" height="470" filterUnits="userSpaceOnUse" color-interpolation-filters="sRGB">
<feFlood flood-opacity="0" result="BackgroundImageFix"/>
<feColorMatrix in="SourceAlpha" type="matrix" values="0 0 0 0 0 0 0 0 0 0 0 0 0 0 0 0 0 0 127 0"/>
<feOffset dx="5" dy="5"/>
<feGaussianBlur stdDeviation="2"/>
<feColorMatrix type="matrix" values="0 0 0 0 0 0 0 0 0 0 0 0 0 0 0 0 0 0 0.25 0"/>
<feBlend mode="normal" in2="BackgroundImageFix" result="effect1_dropShadow"/>
<feBlend mode="normal" in="SourceGraphic" in2="effect1_dropShadow" result="shape"/>
</filter>
<linearGradient id="paint0_linear" x1="124" y1="109" x2="372" y2="323" gradientUnits="userSpaceOnUse">
<stop stop-color="#1C3059" stop-opacity="0.9"/>
<stop offset="1" stop-color="#030F26" stop-opacity="0.93"/>
</linearGradient>
<linearGradient id="paint1_linear" x1="77" y1="49" x2="376" y2="424" gradientUnits="userSpaceOnUse">
<stop stop-color="#1C3059" stop-opacity="0.9"/>
<stop offset="1" stop-color="#030F26" stop-opacity="0.93"/>
</linearGradient>
</defs>
</svg>
