<svg width="140" height="232" viewBox="0 0 140 232" fill="none" xmlns="http://www.w3.org/2000/svg">
<path d="M139.437 47.9V184.1C139.437 200.7 132.937 212.8 119.937 220.4C107.137 227.8 90.1371 231.5 68.9371 231.5C23.3371 231.5 0.53711 215.7 0.53711 184.1V47.9C0.53711 31.3 6.93711 19.3 19.7371 11.9C32.7371 4.29999 49.8371 0.499984 71.0371 0.499984C116.637 0.499984 139.437 16.3 139.437 47.9ZM24.5371 44.9V187.1C24.5371 202.7 39.6371 210.5 69.8371 210.5C100.237 210.5 115.437 202.7 115.437 187.1V44.9C115.437 29.3 100.237 21.5 69.8371 21.5C39.6371 21.5 24.5371 29.3 24.5371 44.9Z" fill="url(#paint0_linear)"/>
<defs>
<linearGradient id="paint0_linear" x1="27" y1="11" x2="121" y2="227" gradientUnits="userSpaceOnUse">
<stop stop-color="#030F26" stop-opacity="0.93"/>
<stop offset="1" stop-color="#1C3059" stop-opacity="0.58"/>
</linearGradient>
</defs>
</svg>
